<svg version="1.2" xmlns="http://www.w3.org/2000/svg" viewBox="0 0 460 90" width="460" height="90">
	<title>New Project</title>
	<style>
		.s0 { paint-order:stroke fill markers;stroke: #9a0034;stroke-width: 2;stroke-linejoin: round;;fill: #9a0034 } 
	</style>
	<path id="SkipTheGames" class="s0" aria-label="SkipTheGames"  d="m29.6 66q-2.9 0-6-0.6-3.1-0.6-5.8-1.4-2.6-0.8-4.2-1.6l1.1-9.4q2.4 1.2 5 2.2 2.6 1 5.4 1.6 2.7 0.7 5.6 0.7 3.5 0 5.6-1.4 2.2-1.4 2.2-4.2 0-2.2-1.3-3.5-1.2-1.4-3.6-2.4-2.5-1.1-6.4-2.5-3.8-1.3-6.9-3-3.1-1.7-4.9-4.4-1.8-2.6-1.8-6.7 0-4 2-7.1 2-3.1 5.9-4.9 3.9-1.8 9.7-1.8 4.4 0 8.4 1 4 1 6.8 2.1l-0.8 9.1q-4.1-1.9-7.7-2.8-3.5-1-7.2-1-3.9 0-6 1.3-2.1 1.3-2.1 3.9 0 2 1.2 3.2 1.1 1.3 3.3 2.2 2.2 0.9 5.2 1.8 5.3 1.7 8.8 3.7 3.6 2 5.4 4.8 1.8 2.8 1.8 7 0 2-0.6 4.5-0.7 2.4-2.6 4.6-2 2.2-5.7 3.6-3.7 1.4-9.8 1.4zm32.8-1h-8.6v-51.9h8.6v31.5l10.6-14.2h9.7l-12.5 16.6 12.8 18h-9.7l-10.9-15.4zm33.5 0h-8.6v-34.6h8.6zm0-39.8h-8.6v-8.6h8.6zm16.5 56.6h-8.5v-51.3h6.8l1.7 5.7-2.6-0.9q2.4-2.5 5.2-3.9 2.8-1.5 6.8-1.5 5.1 0 8.6 2.5 3.4 2.4 5.2 6.5 1.7 4.1 1.7 8.9 0 4.9-1.7 9-1.8 4-5.2 6.5-3.5 2.4-8.6 2.4-4 0-6.5-1.1-2.5-1.1-5.1-3.5l2.2-1.7zm8.1-23.1q3.9 0 6-3 2.1-3.1 2.1-7.9 0-4.8-2.1-7.9-2.1-3-6-3-2.9 0-4.8 1.4-1.9 1.4-2.8 3.9-0.9 2.4-0.9 5.6 0 3.2 0.9 5.7 0.9 2.4 2.8 3.8 1.9 1.4 4.8 1.4zm37 6.3h-8.9v-39.8h-13.6v-8.6h36.1v8.6h-13.6zm26.8 0h-8.6v-51.9h8.6v22.3l-2-1.5q2.2-1.5 4.8-2.8 2.5-1.3 6.1-1.3 4.5 0 7.4 2.1 2.8 2 4.2 5.6 1.3 3.5 1.3 8.2v19.3h-8.5v-18.6q0-4.9-1.6-7.2-1.5-2.3-5-2.3-3 0-5 1.4-1.9 1.4-3.3 3.8l1.6-4.7zm46.1 0.7q-6.3 0-10.4-2.5-4.2-2.5-6.2-6.6-2.1-4.2-2.1-9.1 0-4.7 1.9-8.7 2-4 5.8-6.5 3.7-2.4 9.1-2.4 5 0 8.3 2 3.3 2.1 4.9 5.5 1.7 3.4 1.7 7.5 0 1.1-0.1 2.3-0.2 1.2-0.4 2.4h-22.3q0.5 3.2 2 5.2 1.5 2 3.7 2.9 2.3 1 4.8 1 3 0 5.6-0.8 2.6-0.8 4.8-2.1l0.4 7.3q-2 1-4.9 1.8-2.9 0.8-6.6 0.8zm-9.6-21.9h13.9q0-1.6-0.6-3.1-0.6-1.6-1.9-2.7-1.4-1.1-3.7-1.1-3.3 0-5.2 2-1.9 1.9-2.5 4.9zm50.7 22.2q-7.6 0-13.1-3.1-5.4-3.2-8.3-8.8-2.9-5.7-2.9-13.4 0-7.5 3.2-13.2 3.2-5.6 8.9-8.8 5.7-3.1 13.1-3.1 3.8 0 7.3 0.8 3.5 0.8 6 2.1l-0.9 8.4q-2.6-1.2-5.8-2-3.1-0.8-6.6-0.8-5.4 0-8.8 2.2-3.5 2.2-5.1 5.9-1.7 3.7-1.7 8.4 0 5 1.7 8.8 1.7 3.8 5 5.9 3.4 2.2 8.4 2.2 1.5 0 3.1-0.2 1.7-0.2 3.5-0.6v-8.6h-6.6v-7.4h15.4v21.6q-2.5 1.5-6.7 2.6-4.1 1.1-9.1 1.1zm30.5-0.3q-2.8 0-5.1-1.2-2.2-1.2-3.6-3.6-1.3-2.3-1.3-5.6 0-2.9 1.3-5 1.4-2.1 3.6-3.5 2.3-1.4 4.8-2.2 2.7-0.8 5.2-1.2 2.5-0.4 4.5-0.4-0.2-3-1.6-4.4-1.3-1.3-4.6-1.3-2.4 0-4.6 0.6-2.1 0.7-4.9 2l-0.7-7q3.1-1.5 6.2-2.3 3.1-0.7 6.3-0.7 3.9 0 6.6 1.4 2.8 1.3 4.4 4.4 1.5 3.1 1.5 8.1v9.3q0 2.6 0.2 3.8 0.2 1.1 0.9 1.5 0.7 0.3 1.9 0.3h1.1l-0.8 7h-3.1q-1.9 0-3.4-0.5-1.5-0.5-2.6-1.4-1-0.9-1.7-2.1-1.7 1.9-4.6 3-2.8 1-5.9 1zm3.6-6.6q1.1 0 2.8-0.5 1.7-0.7 3-1.9v-7.9q-2.4 0.1-4.8 0.8-2.4 0.7-4 2-1.7 1.4-1.7 3.4 0 2.1 1.1 3.1 1.2 1 3.6 1zm31.8 5.9h-8.5v-34.6h7.3l0.5 5.1-1.2-1.5q1.9-1.6 4.7-2.8 2.7-1.3 6.4-1.3 2.7 0 4.8 0.8 2.2 0.8 3.7 2.3 1.5 1.5 2.4 3.6l-2-0.5q1.6-3 4.8-4.6 3.2-1.6 7.2-1.6 4.8 0 7.8 1.9 3 2 4.4 5.6 1.4 3.6 1.4 8.4v19.2h-8.6v-18.6q0-4.8-1.5-7.1-1.4-2.4-4.9-2.4-1.8 0-3.1 0.7-1.2 0.5-2.1 1.7-0.8 1.2-1.2 2.8-0.5 1.7-0.5 3.7v19.2h-8.5v-18.6q0-3.2-0.7-5.3-0.6-2.1-2.1-3.1-1.5-1.1-3.8-1.1-3 0-4.9 1.5-1.9 1.3-3.4 3.7l1.6-4.6zm68 0.7q-6.3 0-10.5-2.5-4.1-2.5-6.2-6.7-2-4.1-2-9 0-4.8 1.9-8.8 2-4 5.7-6.4 3.8-2.5 9.2-2.5 5 0 8.3 2.1 3.3 2 4.9 5.4 1.7 3.4 1.7 7.6 0 1.1-0.2 2.3-0.1 1.1-0.4 2.4h-22.2q0.4 3.2 2 5.2 1.5 2 3.7 2.9 2.3 0.9 4.8 0.9 3 0 5.6-0.7 2.6-0.8 4.7-2.1l0.5 7.3q-2 1-4.9 1.8-3 0.8-6.6 0.8zm-9.6-22h13.9q0-1.5-0.6-3.1-0.6-1.6-2-2.6-1.3-1.1-3.6-1.1-3.3 0-5.2 1.9-1.9 2-2.5 4.9zm38.2 22q-3.4 0-6.1-0.7-2.8-0.6-5.5-1.9l0.7-7.3q2.7 1.5 5.2 2.5 2.6 0.9 5.4 0.9 2.6 0 3.9-0.8 1.4-0.8 1.4-2.6 0-1.4-0.7-2.2-0.7-0.9-2.1-1.6-1.5-0.7-3.6-1.5-3.1-1.1-5.4-2.5-2.2-1.4-3.3-3.4-1.2-1.9-1.2-4.8 0-3 1.6-5.3 1.5-2.2 4.4-3.5 2.8-1.3 6.8-1.3 3.2 0 5.8 0.7 2.6 0.8 4.8 2l-0.7 7.3q-2.3-1.6-4.7-2.6-2.3-1.1-5.1-1.1-2.2 0-3.4 0.9-1.2 0.9-1.2 2.6 0 2 1.7 3 1.7 1 5.4 2.4 2.4 1 4.2 2 1.7 1 2.9 2.2 1.2 1.2 1.7 2.7 0.6 1.6 0.6 3.6 0 3.3-1.6 5.6-1.5 2.3-4.5 3.5-3 1.2-7.4 1.2z"/>
</svg>